<?xml version="1.0" encoding="utf-8"?>
<!-- Generator: Adobe Illustrator 16.0.4, SVG Export Plug-In . SVG Version: 6.00 Build 0)  -->
<!DOCTYPE svg PUBLIC "-//W3C//DTD SVG 1.1//EN" "http://www.w3.org/Graphics/SVG/1.1/DTD/svg11.dtd">
<svg version="1.1" id="Layer_1" xmlns="http://www.w3.org/2000/svg" xmlns:xlink="http://www.w3.org/1999/xlink" x="0px" y="0px"
	 width="100px" height="100px" viewBox="0 0 100 100" enable-background="new 0 0 100 100" xml:space="preserve">
<rect x="36.511" y="47.941" fill="none" stroke="#231F20" stroke-width="2" stroke-miterlimit="10" width="24.061" height="21.186"/>
<rect x="45.935" y="58.598" fill="none" stroke="#231F20" stroke-width="2" stroke-miterlimit="10" width="5.25" height="10.5"/>
<polygon fill="none" stroke="#231F20" stroke-width="2" stroke-miterlimit="10" points="31.394,47.932 48.595,30.766 65.797,47.932 
	"/>
<polyline fill="none" stroke="#231F20" stroke-miterlimit="10" points="55.445,37.598 55.445,33.087 58.914,33.087 58.914,41.015 
	"/>
<path fill="none" stroke="#231F20" stroke-width="0.6" stroke-miterlimit="10" d="M55.665,27.24
	c0.089,0.499-0.892,1.893,0.407,2.298c1.277,0.398,0.465,2.625,0.465,2.625"/>
<path fill="none" stroke="#231F20" stroke-width="0.6" stroke-miterlimit="10" d="M57.539,26.99c0.09,0.499-0.892,1.893,0.408,2.298
	c1.277,0.398,0.465,2.625,0.465,2.625"/>
<rect x="52.759" y="51.391" transform="matrix(0.7071 -0.7071 0.7071 0.7071 -21.6265 54.248)" fill="none" stroke="#231F20" stroke-miterlimit="10" width="3.823" height="3.678"/>
<rect x="40.498" y="51.391" transform="matrix(0.7072 -0.707 0.707 0.7072 -25.2168 45.5724)" fill="none" stroke="#231F20" stroke-miterlimit="10" width="3.823" height="3.678"/>
</svg>
